# Blender v2.83.3 OBJ File: ''
# www.blender.org
mtllib Rock.mtl
o Cube.004
v -2.426440 -0.407008 2.238462
v -1.012508 1.911749 -0.334395
v -1.080563 -0.407008 -2.347792
v -0.693453 0.835004 -1.865781
v 3.145324 -0.407008 1.696179
v 0.832684 1.718441 -0.459366
v 0.919437 -0.407008 -2.540303
v 0.186458 0.898097 -2.072131
v -1.184697 0.552197 0.562864
v -1.753502 -0.407008 -0.054665
v -0.867826 1.331220 -0.877649
v 2.032380 -0.407008 -0.044479
v 0.579126 1.432749 -0.981311
v -0.080563 -0.407008 -2.444047
v -0.251789 0.855351 -2.033782
v 0.359442 -0.407008 2.344903
v -0.109041 1.724750 -0.396083
v -0.144350 1.381984 -0.929480
v 0.139439 -0.407008 -0.049572
v -1.766905 0.182644 1.388426
v -0.863467 0.314964 -1.808180
v 0.711848 0.272314 -1.857320
v 2.045784 0.182644 1.494867
v 1.306909 0.182644 -0.253044
v -1.405347 0.359927 -0.686168
v 0.109293 0.183867 1.174481
v -0.018668 0.116053 -2.236266
vt 0.588602 0.868275
vt 0.531234 0.817622
vt 0.556903 0.748788
vt 0.584698 0.762511
vt 0.573610 0.659345
vt 0.545026 0.698776
vt 0.531169 0.655502
vt 0.543037 0.609202
vt 0.756368 0.184533
vt 0.827086 0.261839
vt 0.768512 0.240012
vt 0.569833 0.119755
vt 0.621791 0.327014
vt 0.771262 0.342753
vt 0.772186 0.442017
vt 0.618381 0.532423
vt 0.252284 0.302755
vt 0.232723 0.508399
vt 0.039745 0.611131
vt 0.000000 0.301616
vt 0.829364 0.340585
vt 0.831643 0.419331
vt 0.948363 0.340521
vt 0.935676 0.389833
vt 0.504568 0.303894
vt 0.504568 0.413566
vt 0.925954 0.235316
vt 0.947589 0.292804
vt 0.589715 1.000000
vt 0.504568 0.863249
vt 0.504568 0.194221
vt 0.271845 0.097111
vt 0.039122 0.000000
vt 1.000000 0.422856
vt 0.936084 0.406802
vt 0.973418 0.310634
vt 1.000000 0.313529
vt 0.543593 0.000000
vt 0.504568 0.307922
vt 0.542981 0.609202
vt 0.825974 0.475627
vt 0.771491 0.516029
vt 1.000000 0.204201
vt 0.733077 0.105422
vt 0.627834 0.923896
vt 0.627834 0.750194
vn -0.8588 0.3440 -0.3797
vn 0.2562 0.1337 -0.9573
vn 0.8840 0.2174 -0.4139
vn 0.1168 0.6952 0.7093
vn 0.0000 -1.0000 -0.0000
vn 0.0183 0.7599 -0.6498
vn -0.1370 0.8882 -0.4386
vn 0.8472 0.3784 -0.3730
vn -0.9314 0.2866 -0.2243
vn -0.1049 0.9045 -0.4134
vn -0.0576 0.8646 -0.4991
vn -0.0579 0.7403 0.6697
vn -0.4093 0.0840 -0.9085
vn -0.1770 0.5354 -0.8258
vn 0.0438 0.7781 0.6266
vn -0.8759 0.4437 -0.1894
vn 0.7182 0.6347 -0.2853
vn 0.0114 0.8624 0.5062
vn 0.5644 0.7693 -0.2996
vn 0.0760 0.5995 -0.7968
vn -0.8917 0.3187 -0.3214
usemtl Material
s off
f 25/1/1 11/2/1 4/3/1 21/4/1
f 27/5/2 15/6/2 8/7/2 22/8/2
f 24/9/3 13/10/3 6/11/3 23/12/3
f 26/13/4 17/14/4 2/15/4 20/16/4
f 19/17/5 12/18/5 5/19/5 16/20/5
f 18/21/6 11/22/6 2/15/6 17/14/6
f 15/23/7 4/24/7 11/22/7 18/21/7
f 14/25/5 7/26/5 12/18/5 19/17/5
f 22/27/8 8/28/8 13/10/8 24/9/8
f 20/29/9 2/30/9 11/2/9 25/1/9
f 3/31/5 14/25/5 19/17/5 10/32/5
f 8/28/10 15/23/10 18/21/10 13/10/10
f 13/10/11 18/21/11 17/14/11 6/11/11
f 10/32/5 19/17/5 16/20/5 1/33/5
f 23/12/12 6/11/12 17/14/12 26/13/12
f 21/4/13 4/3/13 15/6/13 27/5/13
f 3/34/14 21/35/14 27/36/14 14/37/14
f 5/38/15 23/12/15 26/13/15 16/39/15
f 1/40/16 20/16/16 25/41/16 10/42/16
f 7/43/17 22/27/17 24/9/17 12/44/17
f 16/39/18 26/13/18 20/16/18 1/40/18
f 12/44/19 24/9/19 23/12/19 5/38/19
f 14/37/20 27/36/20 22/27/20 7/43/20
f 10/45/21 25/1/21 21/4/21 3/46/21
