# Blender v2.93.5 OBJ File: 'pumpkin.blend'
# www.blender.org
mtllib holewall.mtl
o HoleWall_Plane.001
v -0.001822 0.099018 -0.000000
v 0.047373 -0.355612 -0.000000
v 0.472223 -0.355612 -0.000000
v -0.377477 -0.355612 -0.000000
v -0.428494 0.413918 0.000000
v 0.421206 0.413918 0.000000
v -0.001822 -0.113407 -0.000000
v 0.047373 -0.568038 -0.000000
v 0.472223 -0.568038 -0.000000
v 0.259798 -0.355612 -0.000000
v 0.684648 -0.355612 -0.000000
v -0.377477 -0.568038 -0.000000
v -0.589902 -0.355612 -0.000000
v -0.165052 -0.355612 -0.000000
v -0.428494 0.201493 0.000000
v -0.640919 0.413918 0.000000
v 0.421206 0.201493 0.000000
v 0.633631 0.413918 0.000000
v 0.633631 0.201493 0.000000
v 0.208781 0.201493 0.000000
v 0.210603 -0.113407 -0.000000
v -0.216069 0.201493 0.000000
v -0.640919 0.201493 0.000000
v -0.640919 0.626343 0.000000
v -0.165052 -0.568038 -0.000000
v 0.259798 -0.568038 -0.000000
v -0.214247 -0.113407 -0.000000
v 0.633631 0.626343 0.000000
v 0.047373 -0.461825 -0.000000
v 0.472223 -0.461825 -0.000000
v 0.153586 -0.355612 -0.000000
v 0.578436 -0.355612 -0.000000
v -0.377477 -0.461825 -0.000000
v -0.696115 -0.355612 -0.000000
v -0.271264 -0.355612 -0.000000
v 0.047373 -0.249400 -0.000000
v 0.472223 -0.249400 -0.000000
v 0.366011 -0.355612 -0.000000
v -0.377477 -0.249400 -0.000000
v -0.483690 -0.355612 -0.000000
v -0.058839 -0.355612 -0.000000
v -0.165052 -0.461825 -0.000000
v -0.271264 -0.568038 -0.000000
v -0.058839 -0.568038 -0.000000
v -0.589902 -0.461825 -0.000000
v -0.483690 -0.568038 -0.000000
v -0.589902 -0.249400 -0.000000
v 0.259798 -0.461825 -0.000000
v 0.153586 -0.568038 -0.000000
v 0.366011 -0.568038 -0.000000
v 0.259798 -0.249400 -0.000000
v 0.684648 -0.249400 -0.000000
v -0.165052 -0.249400 -0.000000
v -0.058839 -0.249400 -0.000000
v -0.271264 -0.249400 -0.000000
v 0.578436 -0.249400 -0.000000
v 0.366011 -0.249400 -0.000000
v 0.153586 -0.249400 -0.000000
v 0.153586 -0.461825 -0.000000
v 0.578436 -0.461825 -0.000000
v -0.483690 -0.249400 -0.000000
v -0.696115 -0.249400 -0.000000
v -0.271264 -0.461825 -0.000000
v -0.058839 -0.461825 -0.000000
v -0.483690 -0.461825 -0.000000
v 0.366011 -0.461825 -0.000000
v -0.001822 -0.113407 1.227501
v -0.001822 0.099018 1.227501
v 0.047373 -0.461825 1.227501
v 0.047373 -0.355612 1.227501
v 0.472223 -0.461825 1.227501
v 0.472223 -0.355612 1.227501
v 0.153586 -0.355612 1.227501
v 0.578436 -0.355612 1.227501
v -0.377477 -0.461825 1.227501
v -0.377477 -0.355612 1.227501
v -0.271264 -0.355612 1.227501
v -0.428494 0.201493 1.227501
v -0.428494 0.413918 1.227501
v 0.421206 0.201493 1.227501
v 0.421206 0.413918 1.227501
v 0.633631 0.413918 1.227501
v 0.366011 -0.355612 1.227501
v 0.259798 -0.355612 1.227501
v -0.483690 -0.355612 1.227501
v -0.589902 -0.355612 1.227501
v -0.058839 -0.355612 1.227501
v -0.165052 -0.355612 1.227501
v -0.640919 0.413918 1.227501
v 0.633631 0.201493 1.227501
v 0.208781 0.201493 1.227501
v 0.210603 -0.113407 1.227501
v -0.216069 0.201493 1.227501
v -0.640919 0.201493 1.227501
v -0.640919 0.626343 1.227501
v -0.165052 -0.461825 1.227501
v -0.271264 -0.568038 1.227501
v -0.377477 -0.568038 1.227501
v -0.058839 -0.568038 1.227501
v -0.165052 -0.568038 1.227501
v -0.589902 -0.461825 1.227501
v 0.259798 -0.461825 1.227501
v 0.153586 -0.568038 1.227501
v 0.047373 -0.568038 1.227501
v 0.366011 -0.568038 1.227501
v 0.259798 -0.568038 1.227501
v -0.214247 -0.113407 1.227501
v 0.633631 0.626343 1.227501
v 0.578436 -0.461825 1.227501
v 0.684648 -0.355612 1.227501
v 0.472223 -0.568038 1.227501
v -0.696115 -0.355612 1.227501
v 0.047373 -0.249400 1.227501
v 0.472223 -0.249400 1.227501
v -0.377477 -0.249400 1.227501
v -0.589902 -0.249400 1.227501
v 0.259798 -0.249400 1.227501
v 0.684648 -0.249400 1.227501
v -0.165052 -0.249400 1.227501
v -0.058839 -0.249400 1.227501
v -0.271264 -0.249400 1.227501
v 0.578436 -0.249400 1.227501
v 0.366011 -0.249400 1.227501
v 0.153586 -0.249400 1.227501
v 0.153586 -0.461825 1.227501
v -0.483690 -0.249400 1.227501
v -0.696115 -0.249400 1.227501
v -0.271264 -0.461825 1.227501
v -0.058839 -0.461825 1.227501
v -0.483690 -0.461825 1.227501
v -0.483690 -0.568038 1.227501
v 0.366011 -0.461825 1.227501
v 0.633631 0.626343 0.613751
v 0.633631 0.413918 0.613751
v 0.421206 0.413918 0.613751
v 0.208781 0.201493 0.613751
v 0.633631 0.201493 0.613751
v 0.421206 0.201493 0.613751
v -0.640919 0.626343 0.613751
v -0.428494 0.413918 0.613751
v -0.216069 0.201493 0.613751
v -0.428494 0.201493 0.613751
v -0.640919 0.201493 0.613751
v -0.640919 0.413918 0.613751
v -0.001822 -0.113407 0.613751
v -0.214247 -0.113407 0.613751
v -0.001822 0.099018 0.613751
v 0.210603 -0.113407 0.613751
v -0.271264 -0.355612 0.613751
v -0.271264 -0.249400 0.613751
v 0.366011 -0.568038 0.613751
v 0.259798 -0.568038 0.613751
v -0.483690 -0.461825 0.613751
v -0.483690 -0.568038 0.613751
v -0.165052 -0.249400 0.613751
v 0.047373 -0.355612 0.613751
v 0.153586 -0.355612 0.613751
v 0.578436 -0.355612 0.613751
v 0.578436 -0.249400 0.613751
v 0.472223 -0.355612 0.613751
v -0.377477 -0.461825 0.613751
v 0.684648 -0.249400 0.613751
v 0.684648 -0.355612 0.613751
v 0.578436 -0.461825 0.613751
v 0.366011 -0.355612 0.613751
v 0.366011 -0.249400 0.613751
v 0.472223 -0.568038 0.613751
v -0.377477 -0.355612 0.613751
v 0.366011 -0.461825 0.613751
v 0.472223 -0.249400 0.613751
v 0.047373 -0.568038 0.613751
v 0.047373 -0.461825 0.613751
v 0.153586 -0.249400 0.613751
v 0.472223 -0.461825 0.613751
v 0.259798 -0.249400 0.613751
v 0.259798 -0.355612 0.613751
v 0.153586 -0.461825 0.613751
v 0.153586 -0.568038 0.613751
v -0.377477 -0.568038 0.613751
v -0.589902 -0.355612 0.613751
v -0.483690 -0.355612 0.613751
v -0.165052 -0.355612 0.613751
v -0.058839 -0.355612 0.613751
v 0.259798 -0.461825 0.613751
v -0.589902 -0.461825 0.613751
v 0.047373 -0.249400 0.613751
v -0.696115 -0.355612 0.613751
v -0.483690 -0.249400 0.613751
v -0.377477 -0.249400 0.613751
v -0.696115 -0.249400 0.613751
v -0.589902 -0.249400 0.613751
v -0.165052 -0.568038 0.613751
v -0.165052 -0.461825 0.613751
v -0.271264 -0.461825 0.613751
v -0.271264 -0.568038 0.613751
v -0.058839 -0.568038 0.613751
v -0.058839 -0.461825 0.613751
v -0.058839 -0.249400 0.613751
vt 0.646103 0.512296
vt 0.646103 0.964039
vt 0.627124 0.964039
vt 0.627124 0.512296
vt 0.136930 0.512296
vt 0.136930 0.964039
vt 0.117952 0.964039
vt 0.117952 0.512296
vt 0.421613 0.512296
vt 0.421613 0.964039
vt 0.402634 0.964039
vt 0.402634 0.512296
vt 0.665081 0.512296
vt 0.665081 0.964039
vt 0.580376 0.512296
vt 0.580376 0.964039
vt 0.618333 0.964039
vt 0.618333 0.512296
vt 0.778955 0.512296
vt 0.778955 0.964039
vt 0.759976 0.964039
vt 0.759976 0.512296
vt 0.949764 0.512296
vt 0.949764 0.964039
vt 0.930785 0.964039
vt 0.930785 0.512296
vt 0.734804 0.512296
vt 0.734804 0.964039
vt 0.772762 0.964039
vt 0.772762 0.512296
vt 0.911807 0.964039
vt 0.911807 0.512296
vt 0.383655 0.964039
vt 0.383655 0.512296
vt 0.968743 0.512296
vt 0.968743 0.964039
vt 0.034175 0.512296
vt 0.034175 0.964039
vt 0.007335 0.964039
vt 0.007335 0.512296
vt 0.873849 0.512296
vt 0.873849 0.964039
vt 0.854870 0.964039
vt 0.854870 0.512296
vt 0.061015 0.512296
vt 0.061015 0.964039
vt 0.608145 0.964039
vt 0.608145 0.512296
vt 0.098973 0.964039
vt 0.098973 0.512296
vt 0.892828 0.512296
vt 0.892828 0.964039
vt 0.231825 0.512296
vt 0.231825 0.964039
vt 0.212846 0.964039
vt 0.212846 0.512296
vt 0.797933 0.512296
vt 0.797933 0.964039
vt 0.079994 0.512296
vt 0.079994 0.964039
vt 0.816912 0.512296
vt 0.816912 0.964039
vt 0.734804 0.512296
vt 0.734804 0.964039
vt 0.772762 0.964039
vt 0.772762 0.512296
vt 0.835891 0.964039
vt 0.835891 0.512296
vt 0.580050 0.512296
vt 0.580050 0.964039
vt 0.542092 0.964039
vt 0.542092 0.512296
vt 0.193867 0.512296
vt 0.193867 0.964039
vt 0.174888 0.964039
vt 0.174888 0.512296
vt 0.364676 0.964039
vt 0.364676 0.512296
vt 0.551208 0.512296
vt 0.551208 0.964039
vt 0.532230 0.964039
vt 0.532230 0.512296
vt 0.734804 0.964039
vt 0.734804 0.512296
vt 0.703039 0.512296
vt 0.703039 0.964039
vt 0.684060 0.964039
vt 0.684060 0.512296
vt 0.693923 0.512296
vt 0.693923 0.964039
vt 0.655965 0.964039
vt 0.655965 0.512296
vt 0.155909 0.964039
vt 0.155909 0.512296
vt 0.448453 0.512296
vt 0.448453 0.964039
vt 0.740997 0.964039
vt 0.740997 0.512296
vt 0.696846 0.512296
vt 0.696846 0.964039
vt 0.475293 0.512296
vt 0.475293 0.964039
vt 0.693923 0.512296
vt 0.693923 0.964039
vt 0.731881 0.964039
vt 0.731881 0.512296
vt 0.678535 0.512296
vt 0.678535 0.964039
vt 0.640578 0.964039
vt 0.640578 0.512296
vt 0.570187 0.512296
vt 0.570187 0.964039
vt 0.656291 0.512296
vt 0.656291 0.964039
vt 0.618333 0.964039
vt 0.618333 0.512296
vt 0.589166 0.512296
vt 0.589166 0.964039
vt 0.494272 0.512296
vt 0.494272 0.964039
vt 0.542092 0.512296
vt 0.542092 0.964039
vt 0.513251 0.512296
vt 0.513251 0.964039
vt 0.734804 0.512296
vt 0.734804 0.964039
vt 0.696846 0.964039
vt 0.696846 0.512296
vt 0.307740 0.512296
vt 0.307740 0.964039
vt 0.288761 0.964039
vt 0.288761 0.512296
vt 0.504135 0.512296
vt 0.504135 0.964039
vt 0.345698 0.512296
vt 0.345698 0.964039
vt 0.326719 0.964039
vt 0.326719 0.512296
vt 0.987722 0.512296
vt 0.987722 0.964039
vt 0.269782 0.964039
vt 0.269782 0.512296
vt 0.250803 0.964039
vt 0.250803 0.512296
vt 0.722018 0.512296
vt 0.722018 0.964039
vt 0.655965 0.060554
vt 0.693923 0.060554
vt 0.731881 0.060554
vt 0.696846 0.060554
vt 0.734804 0.060554
vt 0.693923 0.060554
vt 0.731881 0.060554
vt 0.731881 0.512296
vt 0.772762 0.060554
vt 0.772762 0.060554
vt 0.734804 0.060554
vt 0.504135 0.060554
vt 0.542092 0.060554
vt 0.696846 0.060554
vt 0.580050 0.060554
vt 0.542092 0.060554
vt 0.504135 0.512296
vt 0.504135 0.060554
vt 0.618333 0.060554
vt 0.656291 0.060554
vt 0.618333 0.060554
vt 0.580376 0.060554
vt 0.212846 0.060554
vt 0.193867 0.060554
vt 0.740997 0.060554
vt 0.722018 0.060554
vt 0.250803 0.060554
vt 0.231825 0.060554
vt 0.703039 0.060554
vt 0.684060 0.060554
vt 0.665081 0.060554
vt 0.269782 0.060554
vt 0.288761 0.060554
vt 0.987722 0.060554
vt 0.968743 0.060554
vt 0.364676 0.060554
vt 0.345698 0.060554
vt 0.835891 0.060554
vt 0.816912 0.060554
vt 0.326719 0.060554
vt 0.307740 0.060554
vt 0.155909 0.060554
vt 0.136930 0.060554
vt 0.532230 0.060554
vt 0.513251 0.060554
vt 0.494272 0.060554
vt 0.475293 0.060554
vt 0.608145 0.060554
vt 0.589166 0.060554
vt 0.570187 0.060554
vt 0.551208 0.060554
vt 0.911807 0.060554
vt 0.892828 0.060554
vt 0.448453 0.060554
vt 0.759976 0.060554
vt 0.421613 0.060554
vt 0.174888 0.060554
vt 0.383655 0.060554
vt 0.854870 0.060554
vt 0.797933 0.060554
vt 0.098973 0.060554
vt 0.079994 0.060554
vt 0.061015 0.060554
vt 0.778955 0.060554
vt 0.873849 0.060554
vt 0.117952 0.060554
vt 0.627124 0.060554
vt 0.034175 0.060554
vt 0.007335 0.060554
vt 0.949764 0.060554
vt 0.402634 0.060554
vt 0.930785 0.060554
vt 0.646103 0.060554
vn 1.0000 0.0000 0.0000
vn 0.0000 1.0000 0.0000
vn -1.0000 0.0000 0.0000
vn 0.0000 -1.0000 -0.0000
vn -0.7071 0.7071 0.0000
vn -0.7071 -0.7071 0.0000
vn 0.7071 -0.7071 0.0000
vn 0.7071 0.7071 0.0000
usemtl None
s off
f 150/1/1 121/2/1 77/3/1 149/4/1
f 152/5/2 106/6/2 105/7/2 151/8/2
f 154/9/3 131/10/3 130/11/3 153/12/3
f 155/13/4 119/14/4 121/2/4 150/1/4
f 146/15/2 107/16/2 67/17/2 145/18/2
f 157/19/4 73/20/4 70/21/4 156/22/4
f 159/23/1 122/24/1 74/25/1 158/26/1
f 134/27/3 82/28/3 108/29/3 133/30/3
f 158/26/4 74/25/4 72/31/4 160/32/4
f 153/12/2 130/11/2 75/33/2 161/34/2
f 162/35/4 118/36/4 122/24/4 159/23/4
f 164/37/5 109/38/5 110/39/5 163/40/5
f 166/41/1 123/42/1 83/43/1 165/44/1
f 167/45/5 111/46/5 109/38/5 164/37/5
f 149/4/4 77/3/4 76/47/4 168/48/4
f 151/8/3 105/7/3 132/49/3 169/50/3
f 170/51/4 114/52/4 123/42/4 166/41/4
f 172/53/1 69/54/1 104/55/1 171/56/1
f 173/57/1 124/58/1 73/20/1 157/19/1
f 174/59/1 71/60/1 111/46/1 167/45/1
f 169/50/2 132/49/2 71/60/2 174/59/2
f 175/61/4 117/62/4 124/58/4 173/57/4
f 140/63/6 79/64/6 95/65/6 139/66/6
f 165/44/4 83/43/4 84/67/4 176/68/4
f 141/69/6 93/70/6 79/71/6 140/72/6
f 178/73/3 103/74/3 125/75/3 177/76/3
f 161/34/1 75/33/1 98/77/1 179/78/1
f 181/79/4 85/80/4 86/81/4 180/82/4
f 133/30/7 108/29/7 81/83/7 135/84/7
f 183/85/4 87/86/4 88/87/4 182/88/4
f 135/89/7 81/90/7 91/91/7 136/92/7
f 177/76/2 125/75/2 102/93/2 184/94/2
f 185/95/8 101/96/8 131/10/8 154/9/8
f 156/22/3 70/21/3 113/97/3 186/98/3
f 137/99/3 90/100/3 82/28/3 134/27/3
f 187/101/8 112/102/8 101/96/8 185/95/8
f 160/32/3 72/31/3 114/52/3 170/51/3
f 138/103/2 80/104/2 90/105/2 137/106/2
f 147/107/7 68/108/7 107/109/7 146/110/7
f 188/111/1 126/112/1 85/80/1 181/79/1
f 136/92/2 91/91/2 80/104/2 138/103/2
f 148/113/6 92/114/6 68/115/6 147/116/6
f 189/117/4 115/118/4 126/112/4 188/111/4
f 168/48/3 76/47/3 115/118/3 189/117/3
f 145/18/2 67/17/2 92/114/2 148/113/2
f 190/119/1 127/120/1 112/102/1 187/101/1
f 142/121/2 78/122/2 93/70/2 141/69/2
f 191/123/4 116/124/4 127/120/4 190/119/4
f 144/125/1 89/126/1 94/127/1 143/128/1
f 193/129/1 96/130/1 100/131/1 192/132/1
f 143/133/2 94/134/2 78/122/2 142/121/2
f 195/135/3 97/136/3 128/137/3 194/138/3
f 180/82/3 86/81/3 116/124/3 191/123/3
f 139/66/1 95/65/1 89/126/1 144/125/1
f 184/94/1 102/93/1 106/6/1 152/5/1
f 194/138/2 128/137/2 96/130/2 193/129/2
f 176/68/3 84/67/3 117/62/3 175/61/3
f 179/78/2 98/77/2 97/136/2 195/135/2
f 163/139/3 110/140/3 118/36/3 162/35/3
f 192/132/2 100/131/2 99/141/2 196/142/2
f 196/142/3 99/141/3 129/143/3 197/144/3
f 182/88/3 88/87/3 119/14/3 155/13/3
f 198/145/1 120/146/1 87/86/1 183/85/1
f 197/144/2 129/143/2 69/54/2 172/53/2
f 186/98/4 113/97/4 120/146/4 198/145/4
f 171/56/2 104/55/2 103/74/2 178/73/2
f 20/147/2 136/92/2 138/103/2 17/148/2
f 17/148/2 138/103/2 137/106/2 19/149/2
f 19/150/3 137/99/3 134/27/3 18/151/3
f 6/152/7 135/89/7 136/92/7 20/147/7
f 28/153/7 133/154/7 135/89/7 6/152/7
f 18/151/3 134/27/3 133/30/3 28/155/3
f 24/156/1 139/66/1 144/125/1 16/157/1
f 23/158/2 143/133/2 142/121/2 15/159/2
f 16/157/1 144/125/1 143/128/1 23/160/1
f 15/159/2 142/121/2 141/69/2 22/161/2
f 22/161/6 141/69/6 140/72/6 5/162/6
f 5/162/6 140/72/6 139/163/6 24/164/6
f 7/165/2 145/18/2 148/113/2 21/166/2
f 21/166/6 148/113/6 147/116/6 1/167/6
f 1/167/7 147/116/7 146/15/7 27/168/7
f 27/168/2 146/15/2 145/18/2 7/165/2
f 8/169/2 171/56/2 178/73/2 49/170/2
f 36/171/4 186/98/4 198/145/4 54/172/4
f 64/173/2 197/144/2 172/53/2 29/174/2
f 54/172/1 198/145/1 183/85/1 41/175/1
f 14/176/3 182/88/3 155/13/3 53/177/3
f 44/178/3 196/142/3 197/144/3 64/173/3
f 25/179/2 192/132/2 196/142/2 44/178/2
f 11/180/3 163/139/3 162/35/3 52/181/3
f 12/182/2 179/78/2 195/135/2 43/183/2
f 10/184/3 176/68/3 175/61/3 51/185/3
f 63/186/2 194/138/2 193/129/2 42/187/2
f 48/188/1 184/94/1 152/5/1 26/189/1
f 13/190/3 180/82/3 191/123/3 47/191/3
f 43/183/3 195/135/3 194/138/3 63/186/3
f 42/187/1 193/129/1 192/132/1 25/179/1
f 47/191/4 191/123/4 190/119/4 62/192/4
f 62/192/1 190/119/1 187/101/1 34/193/1
f 4/194/3 168/48/3 189/117/3 39/195/3
f 39/195/4 189/117/4 188/111/4 61/196/4
f 61/196/1 188/111/1 181/79/1 40/197/1
f 3/198/3 160/32/3 170/51/3 37/199/3
f 34/193/8 187/101/8 185/95/8 45/200/8
f 2/201/3 156/22/3 186/98/3 36/171/3
f 45/200/8 185/95/8 154/9/8 46/202/8
f 59/203/2 177/76/2 184/94/2 48/188/2
f 41/175/4 183/85/4 182/88/4 14/176/4
f 40/197/4 181/79/4 180/82/4 13/190/4
f 33/204/1 161/34/1 179/78/1 12/182/1
f 49/170/3 178/73/3 177/76/3 59/203/3
f 38/205/4 165/44/4 176/68/4 10/184/4
f 51/185/4 175/61/4 173/57/4 58/206/4
f 66/207/2 169/50/2 174/59/2 30/208/2
f 30/208/1 174/59/1 167/45/1 9/209/1
f 58/206/1 173/57/1 157/19/1 31/210/1
f 29/174/1 172/53/1 171/56/1 8/169/1
f 37/199/4 170/51/4 166/41/4 57/211/4
f 50/212/3 151/8/3 169/50/3 66/207/3
f 35/213/4 149/4/4 168/48/4 4/194/4
f 9/209/5 167/45/5 164/37/5 60/214/5
f 57/211/1 166/41/1 165/44/1 38/205/1
f 60/214/5 164/37/5 163/40/5 11/215/5
f 52/181/4 162/35/4 159/23/4 56/216/4
f 65/217/2 153/12/2 161/34/2 33/204/2
f 32/218/4 158/26/4 160/32/4 3/198/4
f 56/216/1 159/23/1 158/26/1 32/218/1
f 31/210/4 157/19/4 156/22/4 2/201/4
f 53/177/4 155/13/4 150/1/4 55/219/4
f 46/202/3 154/9/3 153/12/3 65/217/3
f 26/189/2 152/5/2 151/8/2 50/212/2
f 55/219/1 150/1/1 149/4/1 35/213/1
